<svg xmlns="http://www.w3.org/2000/svg" xmlns:xlink="http://www.w3.org/1999/xlink" viewBox="0 0 420.23 356.97">
  <defs>
    <linearGradient id="a" x1="-148.23" y1="70.71" x2="-166.3" y2="30.2" gradientTransform="matrix(1, 0, 0, -1, 228.58, 116.96)" gradientUnits="userSpaceOnUse">
      <stop offset="0"/>
      <stop offset="1" stop-color="#fff"/>
    </linearGradient>
    <linearGradient id="b" x1="19.485" y1="-56.916" x2="-13.655" y2="-15.836" gradientTransform="matrix(1, 0, 0, -1, 303.13, 166.11)" xlink:href="#a"/>
    <linearGradient id="c" x1="-119.457" y1="-13.214" x2="-163.447" y2="-44.374" gradientTransform="matrix(1, 0, 0, -1, 268.56, 153.6)" xlink:href="#a"/>
    <linearGradient id="d" x1="-185.246" y1="47.634" x2="-158.226" y2="63.244" gradientTransform="matrix(1, 0, 0, -1, 229.94, 99.22)" xlink:href="#a"/>
    <clipPath id="e">
      <path d="M108.58,124.85c-33.62,9.79-49.16-4.67-62.3,40.89-7.42,12.94-29.25,32.88-41,47.63.39,1.17,14.51,69.38,18.1,69.53,13.08.52,20.11-7.52,18.88-27a106.85,106.85,0,0,0-6.63-30.49c16.22-13,33.14-26.89,42.6-35.62-9.65-42.38-1.36-35.17,30.35-64.94" fill="none"/>
    </clipPath>
    <linearGradient id="f" x1="9.769" y1="178.399" x2="110.809" y2="130.839" gradientTransform="matrix(1, 0, 0, -1, 0, 358)" gradientUnits="userSpaceOnUse">
      <stop offset="0" stop-color="#f09"/>
      <stop offset="1" stop-color="#51278a"/>
    </linearGradient>
    <clipPath id="g">
      <path d="M136,66.24c7.86-4.05,9.71-4.87,6.54-12.34l1.59-7.36,1.63-17c6.52-13.6-27.74-15.51-34.4-17.19C99.94,0,78.53,5.81,63.39,14.14a42.27,42.27,0,0,0-15.91,1.67c-8.45,2-7.84,8.53-1.52,16.35-46,59.4-9.5,127.85,28.45,153-6.43-14.87,55.05-28.65,42.74-42.78-29.66-34.06-32.8-67.07-4.94-75.62,10.57-3.24,15.76,3.57,23.79-.57" fill="none"/>
    </clipPath>
    <linearGradient id="h" x1="149.201" y1="308.068" x2="26.641" y2="236.538" xlink:href="#f"/>
    <mask id="i" x="24.469" y="31.47" width="89.251" height="80" maskUnits="userSpaceOnUse">
      <rect x="24.49" y="31.47" width="89.22" height="80" fill="url(#a)"/>
    </mask>
    <clipPath id="j">
      <path d="M343.34,291.38c1.58-8,9.27-75.23,4-77.28-13.91-5.44-28.71-26.14-29.32-55-6.26-25.46,5.31,2.81-5.46-32.42-5.56-18.19-29.4-3.59-46.37-10.49-7.47-3-7-27-16.81-26.32-19.19,1.35-39.37,8.07-51.51,15.5,28.83,8.33,30.7,42.31,35.49,62.92,4.67,20.11,7.72,13.65,19.12,22.42,38.18,29.35,76.07,42.83,69.43,88.05l-6.85.18c-8.3.2-14.54,2.38-18.52,17.69-1.18,4.54-.32,6.3,2,7l43.09.18Z" fill="none"/>
    </clipPath>
    <linearGradient id="k" x1="213.052" y1="87.849" x2="331.752" y2="228.389" xlink:href="#f"/>
    <mask id="l" x="208.28" y="89.89" width="129" height="142.76" maskUnits="userSpaceOnUse">
      <rect x="208.31" y="89.89" width="128.97" height="142.76" fill="url(#b)"/>
    </mask>
    <clipPath id="m">
      <path d="M270.89,91.24l7.48,12.86-32.46,85.45c-73.56-10.67-87.75,3-121.74,12.38-.9,6.23-3.45,24.94-5.49,32.15-8.41,26.73-19.12,48-36.06,71.53l-7.14,10.2-8-.12H41.64c-2-.56-2.71-2.11-1.57-6.1,3.82-13.48,9.35-15.42,16.65-15.65l11.2-.41c7.56-24,11.55-71.64,11.56-98.16-43.57-27-58.43-62.71-56-104.32.52-9,3.89-22.36,5.81-28.08C46.78,82.03,70.74,90.75,93.28,93.32c55.84,6.36,117.92-22.3,177.61-2.11" fill="none"/>
    </clipPath>
    <linearGradient id="n" x1="26.651" y1="192.214" x2="283.001" y2="143.044" xlink:href="#f"/>
    <clipPath id="o">
      <path d="M286.28,130.38c-5.16-6.69-62.35-39.81-55.79-44.8,20.4,1.47,45.42,4.62,65.19,15.93a295,295,0,0,1,48.7,35.3c44.74,40.16,75.85,90.62,63,151.94-3.78,18-12.31,32.77-25.14,43.77-11.76,10.03-26.96,16.72-45.24,19.59-27.23,4.85-28.6-23.35-3.33-30.12,11.75-2.15,21.35-6.44,28.59-12.64,7.82-6.71,13.08-16,15.49-27.46,11.15-53.12-23.87-91.8-62.53-124.07-9.76-8.14-20.84-16.93-28.94-27.43" fill="none"/>
    </clipPath>
    <linearGradient id="p" x1="335.575" y1="-3.23" x2="309.485" y2="267.35" xlink:href="#f"/>
    <clipPath id="q">
      <path d="M220.45,290.99l-12.81.48c-8.3.26-14.59,2.46-18.94,17.81-1.29,4.54-.48,6.31,1.79,6.94h35.18c19.17-16.06,31.71-30.4,52.45-43.75,8.09-5.21,10.49-5.53,7.66-13.53-8.37-23.66-17.2-35.93-10.91-49.48,7.41-15.88,24.48-22.22,34.71-37.65,22.51-34.42-4.32-70.18-32.11-79-19.07-6.05-40.83-10.26-56-8.91,21.31,19,3.17,48.23-4.58,67.35-7.56,18.66-6,29.71-.76,41.76,19.28,44.56,50.82,62.84,4.33,98" fill="none"/>
    </clipPath>
    <linearGradient id="r" x1="194.982" y1="194.315" x2="322.042" y2="124.315" xlink:href="#f"/>
    <mask id="s" x="123.07" y="142.34" width="37.21" height="59.47" maskUnits="userSpaceOnUse">
      <rect x="123.07" y="142.34" width="37.21" height="59.47" fill="url(#c)"/>
    </mask>
    <mask id="t" x="27.84" y="32.15" width="39.39" height="35.58" maskUnits="userSpaceOnUse">
      <rect x="27.84" y="32.16" width="39.39" height="35.57" fill="url(#d)"/>
    </mask>
  </defs>
  <title>logo2</title>
  <g>
    <g clip-path="url(#e)">
      <rect x="5.28" y="120.18" width="103.3" height="163.24" fill="url(#f)"/>
    </g>
    <path d="M52.87,8.71a43.26,43.26,0,0,1,22.14,1.53l6.85,20.12-8.3,2.12c-11.06,2.82-15.53,2.8-23.48-9.77-3.46-5.47-6.63-12.84,2.79-14" fill="#51278a"/>
    <g clip-path="url(#g)">
      <rect width="152.24" height="185.17" fill="url(#h)"/>
    </g>
    <g mask="url(#i)">
      <g opacity="0.3">
        <path d="M44.28,34.37c-18.81,25.53-22.69,52.6-18,77.1,11.62-5.86,26-9.33,41.56-9.33a98.45,98.45,0,0,1,27.44,3.8c-5.81-18.83-.54-33.81,16.94-39.17q.76-.23,1.5-.42C103.38,45.51,83.89,31.47,61.55,31.47a52.76,52.76,0,0,0-17.27,2.9" fill="#51278a"/>
      </g>
    </g>
    <g clip-path="url(#j)">
      <rect x="197.88" y="89.22" width="154.73" height="214.59" fill="url(#k)"/>
    </g>
    <g mask="url(#l)">
      <g opacity="0.58">
        <path d="M337.28,207.53c-10.18-9.41-18.78-26.57-19.24-48.39-6.26-25.46,5.31,2.81-5.46-32.42-5.56-18.19-29.4-3.59-46.37-10.49-7.47-3-7-27-16.81-26.32-3.45.24-6.93.66-10.39,1.22a83.78,83.78,0,0,0-30.73,19.05c19,12.62,20.94,40.36,25.07,58.14,4.67,20.11,7.72,13.65,19.12,22.42,21,16.13,41.87,27.46,55.33,41.9a81.82,81.82,0,0,0,29.48-25.11" fill="#51278a"/>
      </g>
    </g>
    <g clip-path="url(#m)">
      <rect x="21.05" y="62.97" width="257.32" height="252.84" fill="url(#n)"/>
    </g>
    <g clip-path="url(#o)">
      <rect x="223.93" y="85.58" width="196.3" height="271.39" fill="url(#p)"/>
    </g>
    <g clip-path="url(#q)">
      <rect x="187.42" y="82.53" width="144.67" height="233.68" fill="url(#r)"/>
    </g>
    <g mask="url(#s)">
      <path d="M159.44,190.72c-12.53,3.26-21.51,7.29-35.27,11.09a153.3,153.3,0,0,0-1.1-59.47h37.21Z" fill="#51278a"/>
    </g>
    <g mask="url(#t)">
      <path d="M45.96,32.16A102.25,102.25,0,0,0,27.84,67.73C38.17,54.55,54.65,44.07,67.22,38.24c-9.83,3.61-14.25,4-21.24-6.09Z" fill="#51278a"/>
    </g>
  </g>
</svg>
