<svg xmlns="http://www.w3.org/2000/svg" xmlns:xlink="http://www.w3.org/1999/xlink" viewBox="0 0 420.22 356.97">
  <defs>
    <linearGradient id="a" x1="-196.91" y1="404.08" x2="-166.48" y2="372.75" gradientTransform="translate(222.29 -203.61)" gradientUnits="userSpaceOnUse">
      <stop offset="0"/>
      <stop offset="1" stop-color="#fff"/>
    </linearGradient>
    <linearGradient id="b" x1="-148.23" y1="287.29" x2="-166.3" y2="327.8" gradientTransform="translate(223.3 -246.28)" xlink:href="#a"/>
    <linearGradient id="c" x1="19.48" y1="414.92" x2="-13.66" y2="373.84" gradientTransform="translate(297.85 -197.13)" xlink:href="#a"/>
    <linearGradient id="d" x1="-113.79" y1="338" x2="-59.2" y2="346.48" gradientTransform="translate(280.96 -214.62)" xlink:href="#a"/>
    <linearGradient id="e" x1="-119.46" y1="371.21" x2="-163.45" y2="402.37" gradientTransform="translate(263.28 -209.64)" xlink:href="#a"/>
    <linearGradient id="f" x1="-185.25" y1="310.36" x2="-158.23" y2="294.75" gradientTransform="translate(224.66 -264.02)" xlink:href="#a"/>
    <clipPath id="g" transform="translate(5.28 5.24)">
      <path d="M103.3,119.61C69.68,129.4,54.14,114.94,41,160.5c-7.42,12.94-29.25,32.88-41,47.63.39,1.17,14.51,69.38,18.1,69.53,13.08.52,20.11-7.52,18.88-27a106.85,106.85,0,0,0-6.63-30.49c16.22-13,33.14-26.89,42.6-35.62-9.65-42.38-1.36-35.17,30.35-64.94" fill="none" clip-rule="evenodd"/>
    </clipPath>
    <linearGradient id="h" data-name="New Gradient Swatch copy 5" x1="9.77" y1="179.6" x2="110.81" y2="227.16" gradientUnits="userSpaceOnUse">
      <stop offset="0" stop-color="#f09"/>
      <stop offset="1" stop-color="#51278a"/>
    </linearGradient>
    <mask id="i" x="21.99" y="125.85" width="84.24" height="90.82" maskUnits="userSpaceOnUse">
      <g transform="translate(5.28 5.24)">
        <rect x="16.71" y="120.61" width="84.24" height="90.82" fill="url(#a)"/>
      </g>
    </mask>
    <clipPath id="j" transform="translate(5.28 5.24)">
      <path d="M130.72,61c7.86-4.05,9.71-4.87,6.54-12.34l1.59-7.36,1.63-17C147,10.7,112.74,8.79,106.08,7.11,94.66-5.24,73.25.57,58.11,8.9A42.27,42.27,0,0,0,42.2,10.57c-8.45,2-7.84,8.53-1.52,16.35-46,59.4-9.5,127.85,28.45,153-6.43-14.87,55.05-28.65,42.74-42.78-29.66-34.06-32.8-67.07-4.94-75.62,10.57-3.24,15.76,3.57,23.79-.57" fill="none" clip-rule="evenodd"/>
    </clipPath>
    <linearGradient id="k" x1="149.2" y1="49.93" x2="26.64" y2="121.46" xlink:href="#h"/>
    <mask id="l" x="24.49" y="31.47" width="89.22" height="80" maskUnits="userSpaceOnUse">
      <g transform="translate(5.28 5.24)">
        <rect x="19.21" y="26.23" width="89.22" height="80" fill="url(#b)"/>
      </g>
    </mask>
    <clipPath id="m" transform="translate(5.28 5.24)">
      <path d="M338.06,286.14c1.58-8,9.27-75.23,4-77.28-13.91-5.44-28.71-26.14-29.32-55-6.26-25.46,5.31,2.81-5.46-32.42-5.56-18.19-29.4-3.59-46.37-10.49-7.47-3-7-27-16.81-26.32-19.19,1.35-39.37,8.07-51.51,15.5,28.83,8.33,30.7,42.31,35.49,62.92,4.67,20.11,7.72,13.65,19.12,22.42,38.18,29.35,76.07,42.83,69.43,88.05l-6.85.18c-8.3.2-14.54,2.38-18.52,17.69-1.18,4.54-.32,6.3,2,7l43.09.18Z" fill="none" clip-rule="evenodd"/>
    </clipPath>
    <linearGradient id="n" x1="213.05" y1="270.15" x2="331.75" y2="129.61" xlink:href="#h"/>
    <mask id="o" x="208.31" y="89.89" width="128.97" height="142.76" maskUnits="userSpaceOnUse">
      <g transform="translate(5.28 5.24)">
        <rect x="203.03" y="84.65" width="128.97" height="142.76" fill="url(#c)"/>
      </g>
    </mask>
    <clipPath id="p" transform="translate(5.28 5.24)">
      <path d="M265.61,86l7.48,12.86-32.46,85.45c-73.56-10.67-87.75,3-121.74,12.38-.9,6.23-3.45,24.94-5.49,32.15-8.41,26.73-19.12,48-36.06,71.53L70.2,310.57l-8-.12H36.36c-2-.56-2.71-2.11-1.57-6.1,3.82-13.48,9.35-15.42,16.65-15.65l11.2-.41c7.56-24,11.55-71.64,11.56-98.16-43.57-27-58.43-62.71-56-104.32.52-9,3.89-22.36,5.81-28.08C41.5,76.79,65.46,85.51,88,88.08c55.84,6.36,117.92-22.3,177.61-2.11" fill="none" clip-rule="evenodd"/>
    </clipPath>
    <linearGradient id="q" x1="26.65" y1="165.79" x2="283" y2="214.96" xlink:href="#h"/>
    <mask id="r" x="166.66" y="83.89" width="115.67" height="105.63" maskUnits="userSpaceOnUse">
      <g transform="translate(5.28 5.24)">
        <rect x="161.38" y="78.65" width="115.67" height="105.63" fill="url(#d)"/>
      </g>
    </mask>
    <clipPath id="s" transform="translate(5.28 5.24)">
      <path d="M281,125.14c-5.16-6.69-62.35-39.81-55.79-44.8,20.4,1.47,45.42,4.62,65.19,15.93a295,295,0,0,1,48.7,35.3c44.74,40.16,75.85,90.62,63,151.94-3.78,18-12.31,32.77-25.14,43.77C365.2,337.31,350,344,331.72,346.87c-27.23,4.85-28.6-23.35-3.33-30.12,11.75-2.15,21.35-6.44,28.59-12.64,7.82-6.71,13.08-16,15.49-27.46,11.15-53.12-23.87-91.8-62.53-124.07-9.76-8.14-20.84-16.93-28.94-27.43" fill="none" clip-rule="evenodd"/>
    </clipPath>
    <linearGradient id="t" x1="335.57" y1="361.23" x2="309.48" y2="90.65" xlink:href="#h"/>
    <clipPath id="u" transform="translate(5.28 5.24)">
      <path d="M215.17,285.75l-12.81.48c-8.3.26-14.59,2.46-18.94,17.81-1.29,4.54-.48,6.31,1.79,6.94h35.18c19.17-16.06,31.71-30.4,52.45-43.75,8.09-5.21,10.49-5.53,7.66-13.53-8.37-23.66-17.2-35.93-10.91-49.48C277,188.34,294.07,182,304.3,166.57c22.51-34.42-4.32-70.18-32.11-79-19.07-6.05-40.83-10.26-56-8.91,21.31,19,3.17,48.23-4.58,67.35-7.56,18.66-6,29.71-.76,41.76,19.28,44.56,50.82,62.84,4.33,98" fill="none" clip-rule="evenodd"/>
    </clipPath>
    <linearGradient id="v" x1="194.98" y1="163.69" x2="322.04" y2="233.69" xlink:href="#h"/>
    <mask id="w" x="123.07" y="142.34" width="37.21" height="59.47" maskUnits="userSpaceOnUse">
      <g transform="translate(5.28 5.24)">
        <rect x="117.79" y="137.1" width="37.21" height="59.47" fill="url(#e)"/>
      </g>
    </mask>
    <mask id="x" x="27.84" y="32.16" width="39.39" height="35.57" maskUnits="userSpaceOnUse">
      <g transform="translate(5.28 5.24)">
        <rect x="22.56" y="26.92" width="39.39" height="35.57" fill="url(#f)"/>
      </g>
    </mask>
  </defs>
  <title>Untitled-2</title>
  <g>
    <g clip-path="url(#g)">
      <rect x="5.28" y="120.18" width="103.3" height="163.24" fill="url(#h)"/>
    </g>
    <g mask="url(#i)">
      <path d="M99.59,120.61c-31.07,7.78-45.95-4-58.58,39.9-4.55,7.94-14.54,18.53-24.3,28.93a54.93,54.93,0,0,0,24.49,22c12.53-10.17,24.4-20.09,31.74-26.88-9.41-41.31-1.76-35.51,28-62.76q-.67-.6-1.36-1.17" transform="translate(5.28 5.24)" fill="#51278a" fill-rule="evenodd"/>
    </g>
    <path d="M47.59,3.47A43.26,43.26,0,0,1,69.73,5l6.85,20.12-8.3,2.12c-11.06,2.82-15.53,2.8-23.48-9.77-3.46-5.47-6.63-12.84,2.79-14" transform="translate(5.28 5.24)" fill="#51278a" fill-rule="evenodd"/>
    <g clip-path="url(#j)">
      <rect width="152.24" height="185.17" fill="url(#k)"/>
    </g>
    <g mask="url(#l)">
      <path d="M39,29.13c-18.81,25.53-22.69,52.6-18,77.1,11.62-5.86,26-9.33,41.56-9.33A98.45,98.45,0,0,1,90,100.7c-5.81-18.83-.54-33.81,16.94-39.17q.76-.23,1.5-.42C98.1,40.27,78.61,26.23,56.27,26.23A52.76,52.76,0,0,0,39,29.13" transform="translate(5.28 5.24)" fill="#51278a" fill-rule="evenodd"/>
    </g>
    <g clip-path="url(#m)">
      <rect x="197.88" y="89.22" width="154.73" height="214.59" fill="url(#n)"/>
    </g>
    <g mask="url(#o)">
      <path d="M332,202.29c-10.18-9.41-18.78-26.57-19.24-48.39-6.26-25.46,5.31,2.81-5.46-32.42-5.56-18.19-29.4-3.59-46.37-10.49-7.47-3-7-27-16.81-26.32-3.45.24-6.93.66-10.39,1.22A83.78,83.78,0,0,0,203,104.94c19,12.62,20.94,40.36,25.07,58.14,4.67,20.11,7.72,13.65,19.12,22.42,21,16.13,41.87,27.46,55.33,41.9A81.82,81.82,0,0,0,332,202.29" transform="translate(5.28 5.24)" fill="#51278a" fill-rule="evenodd"/>
    </g>
    <g clip-path="url(#p)">
      <rect x="21.05" y="62.97" width="257.32" height="252.84" fill="url(#q)"/>
    </g>
    <g mask="url(#r)">
      <path d="M269.35,89.76l7.7,9.07-32.46,85.45c-13-1.88-27.39-2.79-37.13-3.44-13.49-.91-36.42.08-46.08,2.91l1-100.16c19.3-2.53,39.71-4.94,53.81-4.93,15.95,0,31.77,5,53.16,11.11" transform="translate(5.28 5.24)" fill="#51278a" fill-rule="evenodd"/>
    </g>
    <g clip-path="url(#s)">
      <rect x="223.93" y="85.58" width="196.3" height="271.39" fill="url(#t)"/>
    </g>
    <g clip-path="url(#u)">
      <rect x="187.42" y="82.53" width="144.67" height="233.68" fill="url(#v)"/>
    </g>
    <g mask="url(#w)">
      <path d="M154.16,185.48c-12.53,3.26-21.51,7.29-35.27,11.09a153.3,153.3,0,0,0-1.1-59.47H155Z" transform="translate(5.28 5.24)" fill="#51278a" fill-rule="evenodd"/>
    </g>
    <g mask="url(#x)">
      <path d="M40.68,26.92A102.25,102.25,0,0,0,22.56,62.49C32.89,49.31,49.37,38.83,61.94,33c-9.83,3.61-14.25,4-21.24-6.09Z" transform="translate(5.28 5.24)" fill="#51278a" fill-rule="evenodd"/>
    </g>
  </g>
</svg>
