<?xml version="1.0" encoding="utf-8"?>
<!-- Generator: Adobe Illustrator 21.0.0, SVG Export Plug-In . SVG Version: 6.00 Build 0)  -->
<svg version="1.1" id="Layer_1" xmlns="http://www.w3.org/2000/svg" xmlns:xlink="http://www.w3.org/1999/xlink" x="0px" y="0px"
	 viewBox="0 0 420.2 357" style="enable-background:new 0 0 420.2 357;" xml:space="preserve">
<style type="text/css">
	.st0{clip-path:url(#SVGID_2_);}
	.st1{fill:url(#SVGID_3_);}
	.st2{fill:#51278A;}
	.st3{clip-path:url(#SVGID_5_);}
	.st4{fill:url(#SVGID_6_);}
	.st5{filter:url(#Adobe_OpacityMaskFilter);}
	.st6{fill:url(#SVGID_7_);}
	.st7{opacity:0.3;mask:url(#l);}
	.st8{clip-path:url(#SVGID_9_);}
	.st9{fill:url(#SVGID_10_);}
	.st10{filter:url(#Adobe_OpacityMaskFilter_1_);}
	.st11{fill:url(#SVGID_11_);}
	.st12{opacity:0.58;mask:url(#o);}
	.st13{clip-path:url(#SVGID_13_);}
	.st14{fill:url(#SVGID_14_);}
	.st15{clip-path:url(#SVGID_16_);}
	.st16{fill:url(#SVGID_17_);}
	.st17{clip-path:url(#SVGID_19_);}
	.st18{fill:url(#SVGID_20_);}
	.st19{filter:url(#Adobe_OpacityMaskFilter_2_);}
	.st20{fill:url(#SVGID_21_);}
	.st21{mask:url(#w);}
	.st22{filter:url(#Adobe_OpacityMaskFilter_3_);}
	.st23{fill:url(#SVGID_22_);}
	.st24{mask:url(#x);}
</style>
<title>Untitled-2</title>
<g>
	<g>
		<defs>
			<path id="SVGID_1_" d="M108.6,124.8c-33.6,9.8-49.2-4.7-62.3,40.9c-7.4,12.9-29.2,32.9-41,47.6c0.4,1.2,14.5,69.4,18.1,69.5
				c13.1,0.5,20.1-7.5,18.9-27c-0.7-10.4-2.9-20.7-6.6-30.5c16.2-13,33.1-26.9,42.6-35.6C68.6,147.4,76.9,154.6,108.6,124.8"/>
		</defs>
		<clipPath id="SVGID_2_">
			<use xlink:href="#SVGID_1_"  style="overflow:visible;"/>
		</clipPath>
		<g class="st0">
			
				<linearGradient id="SVGID_3_" gradientUnits="userSpaceOnUse" x1="9.7694" y1="178.3987" x2="110.8094" y2="130.8387" gradientTransform="matrix(1 0 0 -1 0 358)">
				<stop  offset="0" style="stop-color:#FF0099"/>
				<stop  offset="1" style="stop-color:#51278A"/>
			</linearGradient>
			<rect x="5.3" y="120.2" class="st1" width="103.3" height="163.2"/>
		</g>
	</g>
	<path class="st2" d="M52.9,8.7c7.4-1.4,15-0.9,22.1,1.5l6.8,20.1l-8.3,2.1c-11.1,2.8-15.5,2.8-23.5-9.8
		C46.6,17.2,43.4,9.9,52.9,8.7"/>
	<g>
		<defs>
			<path id="SVGID_4_" d="M136,66.2c7.9-4,9.7-4.9,6.5-12.3l1.6-7.4l1.6-17c6.5-13.6-27.7-15.5-34.4-17.2C99.9,0,78.5,5.8,63.4,14.1
				c-5.4-0.5-10.8,0.1-15.9,1.7c-8.5,2-7.8,8.5-1.5,16.4C0,91.6,36.5,160,74.4,185.2c-6.4-14.9,55.1-28.6,42.7-42.8
				c-29.7-34.1-32.8-67.1-4.9-75.6C122.8,63.5,128,70.3,136,66.2"/>
		</defs>
		<clipPath id="SVGID_5_">
			<use xlink:href="#SVGID_4_"  style="overflow:visible;"/>
		</clipPath>
		<g class="st3">
			
				<linearGradient id="SVGID_6_" gradientUnits="userSpaceOnUse" x1="149.2014" y1="308.0677" x2="26.6414" y2="236.5377" gradientTransform="matrix(1 0 0 -1 0 358)">
				<stop  offset="0" style="stop-color:#FF0099"/>
				<stop  offset="1" style="stop-color:#51278A"/>
			</linearGradient>
			<rect class="st4" width="152.2" height="185.2"/>
		</g>
	</g>
	<defs>
		<filter id="Adobe_OpacityMaskFilter" filterUnits="userSpaceOnUse" x="24.5" y="31.5" width="89.3" height="80">
			<feColorMatrix  type="matrix" values="1 0 0 0 0  0 1 0 0 0  0 0 1 0 0  0 0 0 1 0"/>
		</filter>
	</defs>
	<mask maskUnits="userSpaceOnUse" x="24.5" y="31.5" width="89.3" height="80" id="l">
		<g transform="translate(5.28 5.24)" class="st5">
			
				<linearGradient id="SVGID_7_" gradientUnits="userSpaceOnUse" x1="-153.5103" y1="65.4701" x2="-171.5803" y2="24.9601" gradientTransform="matrix(1 0 0 -1 228.58 106.48)">
				<stop  offset="0" style="stop-color:#000000"/>
				<stop  offset="1" style="stop-color:#FFFFFF"/>
			</linearGradient>
			<rect x="19.2" y="26.2" class="st6" width="89.2" height="80"/>
		</g>
	</mask>
	<g class="st7">
		<path class="st2" d="M44.3,34.4c-18.8,25.5-22.7,52.6-18,77.1c11.6-5.9,26-9.3,41.6-9.3c9.3,0,18.5,1.2,27.4,3.8
			c-5.8-18.8-0.5-33.8,16.9-39.2c0.5-0.2,1-0.3,1.5-0.4c-10.3-20.8-29.8-34.9-52.2-34.9C55.7,31.5,49.8,32.4,44.3,34.4"/>
	</g>
	<g>
		<defs>
			<path id="SVGID_8_" d="M343.3,291.4c1.6-8,9.3-75.2,4-77.3c-13.9-5.4-28.7-26.1-29.3-55c-6.3-25.5,5.3,2.8-5.5-32.4
				c-5.6-18.2-29.4-3.6-46.4-10.5c-7.5-3-7-27-16.8-26.3c-19.2,1.3-39.4,8.1-51.5,15.5c28.8,8.3,30.7,42.3,35.5,62.9
				c4.7,20.1,7.7,13.6,19.1,22.4c38.2,29.4,76.1,42.8,69.4,88l-6.9,0.2c-8.3,0.2-14.5,2.4-18.5,17.7c-1.2,4.5-0.3,6.3,2,7l43.1,0.2
				L343.3,291.4z"/>
		</defs>
		<clipPath id="SVGID_9_">
			<use xlink:href="#SVGID_8_"  style="overflow:visible;"/>
		</clipPath>
		<g class="st8">
			
				<linearGradient id="SVGID_10_" gradientUnits="userSpaceOnUse" x1="213.0517" y1="87.8486" x2="331.7517" y2="228.3885" gradientTransform="matrix(1 0 0 -1 0 358)">
				<stop  offset="0" style="stop-color:#FF0099"/>
				<stop  offset="1" style="stop-color:#51278A"/>
			</linearGradient>
			<rect x="197.9" y="89.2" class="st9" width="154.7" height="214.6"/>
		</g>
	</g>
	<defs>
		<filter id="Adobe_OpacityMaskFilter_1_" filterUnits="userSpaceOnUse" x="208.3" y="89.9" width="129" height="142.7">
			<feColorMatrix  type="matrix" values="1 0 0 0 0  0 1 0 0 0  0 0 1 0 0  0 0 0 1 0"/>
		</filter>
	</defs>
	<mask maskUnits="userSpaceOnUse" x="208.3" y="89.9" width="129" height="142.7" id="o">
		<g transform="translate(5.28 5.24)" class="st10">
			
				<linearGradient id="SVGID_11_" gradientUnits="userSpaceOnUse" x1="14.2048" y1="-62.1561" x2="-18.9352" y2="-21.0761" gradientTransform="matrix(1 0 0 -1 303.13 155.63)">
				<stop  offset="0" style="stop-color:#000000"/>
				<stop  offset="1" style="stop-color:#FFFFFF"/>
			</linearGradient>
			<rect x="203" y="84.7" class="st11" width="129" height="142.8"/>
		</g>
	</mask>
	<g class="st12">
		<path class="st2" d="M337.3,207.5c-10.2-9.4-18.8-26.6-19.2-48.4c-6.3-25.5,5.3,2.8-5.5-32.4c-5.6-18.2-29.4-3.6-46.4-10.5
			c-7.5-3-7-27-16.8-26.3c-3.4,0.2-6.9,0.7-10.4,1.2c-11.5,4-22,10.5-30.7,19.1c19,12.6,20.9,40.4,25.1,58.1
			c4.7,20.1,7.7,13.6,19.1,22.4c21,16.1,41.9,27.5,55.3,41.9C319.5,226.7,329.6,218.1,337.3,207.5"/>
	</g>
	<g>
		<defs>
			<path id="SVGID_12_" d="M270.9,91.2l7.5,12.9l-32.5,85.5c-73.6-10.7-87.8,3-121.7,12.4c-0.9,6.2-3.4,24.9-5.5,32.1
				c-8.4,26.7-19.1,48-36.1,71.5l-7.1,10.2l-8-0.1H41.6c-2-0.6-2.7-2.1-1.6-6.1c3.8-13.5,9.3-15.4,16.7-15.6l11.2-0.4
				c7.6-24,11.5-71.6,11.6-98.2c-43.6-27-58.4-62.7-56-104.3c0.5-9,3.9-22.4,5.8-28.1c17.5,19.1,41.4,27.8,64,30.3
				C149.1,99.7,211.2,71,270.9,91.2"/>
		</defs>
		<clipPath id="SVGID_13_">
			<use xlink:href="#SVGID_12_"  style="overflow:visible;"/>
		</clipPath>
		<g class="st13">
			
				<linearGradient id="SVGID_14_" gradientUnits="userSpaceOnUse" x1="26.6507" y1="192.2138" x2="283.0007" y2="143.0438" gradientTransform="matrix(1 0 0 -1 0 358)">
				<stop  offset="0" style="stop-color:#FF0099"/>
				<stop  offset="1" style="stop-color:#51278A"/>
			</linearGradient>
			<rect x="21" y="63" class="st14" width="257.3" height="252.8"/>
		</g>
	</g>
	<g>
		<defs>
			<path id="SVGID_15_" d="M286.3,130.4c-5.2-6.7-62.4-39.8-55.8-44.8c20.4,1.5,45.4,4.6,65.2,15.9c17.4,10.1,33.7,21.9,48.7,35.3
				c44.7,40.2,75.9,90.6,63,151.9c-3.8,18-12.3,32.8-25.1,43.8c-11.8,10-27,16.7-45.2,19.6c-27.2,4.9-28.6-23.4-3.3-30.1
				c11.8-2.1,21.4-6.4,28.6-12.6c7.8-6.7,13.1-16,15.5-27.5c11.1-53.1-23.9-91.8-62.5-124.1C305.5,149.7,294.4,140.9,286.3,130.4"/>
		</defs>
		<clipPath id="SVGID_16_">
			<use xlink:href="#SVGID_15_"  style="overflow:visible;"/>
		</clipPath>
		<g class="st15">
			
				<linearGradient id="SVGID_17_" gradientUnits="userSpaceOnUse" x1="335.5748" y1="-3.2296" x2="309.4847" y2="267.3505" gradientTransform="matrix(1 0 0 -1 0 358)">
				<stop  offset="0" style="stop-color:#FF0099"/>
				<stop  offset="1" style="stop-color:#51278A"/>
			</linearGradient>
			<rect x="223.9" y="85.6" class="st16" width="196.3" height="271.4"/>
		</g>
	</g>
	<g>
		<defs>
			<path id="SVGID_18_" d="M220.4,291l-12.8,0.5c-8.3,0.3-14.6,2.5-18.9,17.8c-1.3,4.5-0.5,6.3,1.8,6.9h35.2
				c19.2-16.1,31.7-30.4,52.5-43.8c8.1-5.2,10.5-5.5,7.7-13.5c-8.4-23.7-17.2-35.9-10.9-49.5c7.4-15.9,24.5-22.2,34.7-37.7
				c22.5-34.4-4.3-70.2-32.1-79c-19.1-6.1-40.8-10.3-56-8.9c21.3,19,3.2,48.2-4.6,67.4c-7.6,18.7-6,29.7-0.8,41.8
				C235.4,237.6,267,255.9,220.4,291"/>
		</defs>
		<clipPath id="SVGID_19_">
			<use xlink:href="#SVGID_18_"  style="overflow:visible;"/>
		</clipPath>
		<g class="st17">
			
				<linearGradient id="SVGID_20_" gradientUnits="userSpaceOnUse" x1="194.9825" y1="194.3145" x2="322.0425" y2="124.3145" gradientTransform="matrix(1 0 0 -1 0 358)">
				<stop  offset="0" style="stop-color:#FF0099"/>
				<stop  offset="1" style="stop-color:#51278A"/>
			</linearGradient>
			<rect x="187.4" y="82.5" class="st18" width="144.7" height="233.7"/>
		</g>
	</g>
	<defs>
		<filter id="Adobe_OpacityMaskFilter_2_" filterUnits="userSpaceOnUse" x="123.1" y="142.3" width="37.2" height="59.5">
			<feColorMatrix  type="matrix" values="1 0 0 0 0  0 1 0 0 0  0 0 1 0 0  0 0 0 1 0"/>
		</filter>
	</defs>
	<mask maskUnits="userSpaceOnUse" x="123.1" y="142.3" width="37.2" height="59.5" id="w">
		<g transform="translate(5.28 5.24)" class="st19">
			
				<linearGradient id="SVGID_21_" gradientUnits="userSpaceOnUse" x1="-124.7374" y1="-18.4537" x2="-168.7274" y2="-49.6137" gradientTransform="matrix(1 0 0 -1 268.56 143.12)">
				<stop  offset="0" style="stop-color:#000000"/>
				<stop  offset="1" style="stop-color:#FFFFFF"/>
			</linearGradient>
			<rect x="117.8" y="137.1" class="st20" width="37.2" height="59.5"/>
		</g>
	</mask>
	<g class="st21">
		<path class="st2" d="M159.4,190.7c-12.5,3.3-21.5,7.3-35.3,11.1c3.5-19.7,3.1-39.9-1.1-59.5h37.2L159.4,190.7z"/>
	</g>
	<defs>
		<filter id="Adobe_OpacityMaskFilter_3_" filterUnits="userSpaceOnUse" x="27.8" y="32.2" width="39.4" height="35.6">
			<feColorMatrix  type="matrix" values="1 0 0 0 0  0 1 0 0 0  0 0 1 0 0  0 0 0 1 0"/>
		</filter>
	</defs>
	<mask maskUnits="userSpaceOnUse" x="27.8" y="32.2" width="39.4" height="35.6" id="x">
		<g transform="translate(5.28 5.24)" class="st22">
			
				<linearGradient id="SVGID_22_" gradientUnits="userSpaceOnUse" x1="-190.5263" y1="42.3936" x2="-163.5063" y2="58.0035" gradientTransform="matrix(1 0 0 -1 229.94 88.74)">
				<stop  offset="0" style="stop-color:#000000"/>
				<stop  offset="1" style="stop-color:#FFFFFF"/>
			</linearGradient>
			<rect x="22.6" y="26.9" class="st23" width="39.4" height="35.6"/>
		</g>
	</mask>
	<g class="st24">
		<path class="st2" d="M46,32.2c-8.3,10.6-14.5,22.6-18.1,35.6c10.3-13.2,26.8-23.7,39.4-29.5C57.4,41.8,53,42.2,46,32.2L46,32.2z"
			/>
	</g>
</g>
</svg>
